<svg width="618" height="182" viewBox="0 0 618 182" fill="none" xmlns="http://www.w3.org/2000/svg">
<path fill-rule="evenodd" clip-rule="evenodd" d="M427.981 161.487C437.886 161.487 446.043 158.185 452.452 151.582C456.561 147.474 459.391 142.613 460.944 137H484.05C482.003 147.611 476.909 157.132 468.766 165.566C457.89 176.442 444.295 181.879 427.981 181.879C411.668 181.879 398.073 176.539 387.197 165.857C378.968 157.628 373.852 148.009 371.849 137H395.28C396.789 142.55 399.533 147.313 403.511 151.291C409.92 158.088 418.077 161.487 427.981 161.487ZM394.056 122C394.773 113.295 397.925 106.065 403.511 100.31C409.92 93.7067 418.077 90.4051 427.981 90.4051C437.886 90.4051 446.043 93.7067 452.452 100.31C458.207 106.065 461.454 113.295 462.194 122H484.963C484.119 107.994 478.72 96.103 468.766 86.3266C457.89 75.4507 444.295 70.0127 427.981 70.0127C411.668 70.0127 398.073 75.4507 387.197 86.3266C377.243 96.103 371.844 107.994 371 122H394.056Z" fill="#3B3B3B"/>
<path fill-rule="evenodd" clip-rule="evenodd" d="M560.981 161.487C570.886 161.487 579.043 158.185 585.452 151.582C589.561 147.474 592.391 142.613 593.944 137H617.05C615.003 147.611 609.909 157.132 601.766 165.566C590.89 176.442 577.295 181.879 560.981 181.879C544.668 181.879 531.073 176.539 520.197 165.857C511.968 157.628 506.852 148.009 504.849 137H528.28C529.789 142.55 532.533 147.313 536.511 151.291C542.92 158.088 551.077 161.487 560.981 161.487ZM527.056 122C527.773 113.295 530.925 106.065 536.511 100.31C542.92 93.7067 551.077 90.4051 560.981 90.4051C570.886 90.4051 579.043 93.7067 585.452 100.31C591.207 106.065 594.454 113.295 595.194 122H617.963C617.119 107.994 611.72 96.103 601.766 86.3266C590.89 75.4507 577.295 70.0127 560.981 70.0127C544.668 70.0127 531.073 75.4507 520.197 86.3266C510.243 96.103 504.844 107.994 504 122H527.056Z" fill="#3B3B3B"/>
<path d="M293.914 180.131L250.508 71.7598H274.105L307.024 153.621L340.234 71.7598H363.831L320.133 180.131H293.914Z" fill="#3B3B3B"/>
<path d="M232.067 180.131H209.344V71.7598H232.067V180.131Z" fill="#3B3B3B"/>
<path fill-rule="evenodd" clip-rule="evenodd" d="M183.193 0.333253C189.821 1.09615 196.234 3.15702 202.065 6.39819L177.384 50.803L152.703 95.2077C146.872 91.9666 141.736 87.6086 137.589 82.3826C133.442 77.1566 130.364 71.1649 128.533 64.7497C126.701 58.3345 126.151 51.6213 126.914 44.9936C127.677 38.3658 129.738 31.9532 132.979 26.1219C136.22 20.2905 140.578 15.1547 145.804 11.0076C151.03 6.86053 157.022 3.78338 163.437 1.95187C169.852 0.120359 176.566 -0.429648 183.193 0.333253ZM0 7.02798L6.58257 4.78027C31.6121 -3.7664 59.1991 6.4874 72.57 29.3072L119.782 109.882C131.787 130.371 127.997 156.443 110.656 172.666L102.816 180L0 7.02798Z" fill="#009CFF"/>
</svg>
