<svg width="361" height="360" viewBox="0 0 361 360" fill="none" xmlns="http://www.w3.org/2000/svg">
<rect x="0.5" width="360" height="360" rx="180" fill="#009CFF"/>
<path fill-rule="evenodd" clip-rule="evenodd" d="M262.193 105.333C268.821 106.096 275.234 108.157 281.065 111.398L256.384 155.803L231.703 200.208C225.872 196.967 220.736 192.609 216.589 187.383C212.442 182.157 209.364 176.165 207.533 169.75C205.701 163.334 205.151 156.621 205.914 149.994C206.677 143.366 208.738 136.953 211.979 131.122C215.22 125.291 219.578 120.155 224.804 116.008C230.03 111.861 236.022 108.783 242.437 106.952C248.852 105.12 255.566 104.57 262.193 105.333ZM79 112.028L85.5826 109.78C110.612 101.234 138.199 111.487 151.57 134.307L198.782 214.882C210.787 235.371 206.997 261.443 189.656 277.666L181.816 285L79 112.028Z" fill="white"/>
</svg>
